<svg xmlns="http://www.w3.org/2000/svg" width="1200" height="900" viewBox="0 0 1200 900">
  <defs>
    <linearGradient id="bg" x1="0" y1="0" x2="1" y2="1">
      <stop offset="0" stop-color="#0b1220" />
      <stop offset="1" stop-color="#111827" />
    </linearGradient>
    <radialGradient id="paper" cx="65%" cy="25%" r="70%">
      <stop offset="0" stop-color="#f9f8f6" stop-opacity="0.8"/>
      <stop offset="1" stop-color="#f9f8f6" stop-opacity="0"/>
    </radialGradient>
  </defs>
  <rect width="1200" height="900" fill="url(#bg)"/>
  <rect width="1200" height="900" fill="url(#paper)"/>
  <g opacity="0.85">
    <path d="M210 650 C 330 540, 420 560, 540 650 C 660 740, 760 740, 900 610"
          stroke="#f59e0b" stroke-opacity="0.28" stroke-width="10" fill="none" stroke-linecap="round"/>
    <path d="M290 260 C 420 170, 550 170, 690 260 C 790 320, 880 320, 980 250"
          stroke="#60a5fa" stroke-opacity="0.22" stroke-width="10" fill="none" stroke-linecap="round"/>
    <circle cx="370" cy="480" r="140" fill="#22c55e" fill-opacity="0.12"/>
    <circle cx="820" cy="520" r="110" fill="#60a5fa" fill-opacity="0.12"/>
    <rect x="240" y="360" width="720" height="360" rx="26" fill="#0f172a" opacity="0.55"/>
    <rect x="300" y="420" width="220" height="20" rx="10" fill="#f9f8f6" opacity="0.25"/>
    <rect x="300" y="460" width="460" height="18" rx="10" fill="#f9f8f6" opacity="0.18"/>
    <rect x="300" y="495" width="380" height="18" rx="10" fill="#f9f8f6" opacity="0.14"/>
  </g>
  <g font-family="Georgia, 'Times New Roman', serif" fill="#f9f8f6">
    <text x="120" y="170" font-size="54" font-weight="700" opacity="0.92">Contact</text>
    <text x="120" y="235" font-size="22" opacity="0.7">Let's talk</text>
  </g>
</svg>

