<svg xmlns="http://www.w3.org/2000/svg" width="1200" height="900" viewBox="0 0 1200 900">
  <defs>
    <linearGradient id="bg" x1="0" y1="0" x2="1" y2="1">
      <stop offset="0" stop-color="#0b1220"/>
      <stop offset="1" stop-color="#111827"/>
    </linearGradient>
    <radialGradient id="accent" cx="30%" cy="25%" r="60%">
      <stop offset="0" stop-color="#f59e0b" stop-opacity="0.45"/>
      <stop offset="1" stop-color="#f59e0b" stop-opacity="0"/>
    </radialGradient>
  </defs>
  <rect width="1200" height="900" fill="url(#bg)"/>
  <rect width="1200" height="900" fill="url(#accent)"/>
  <g opacity="0.95">
    <rect x="140" y="160" width="920" height="580" rx="28" fill="#0f172a" opacity="0.55"/>
    <rect x="200" y="220" width="520" height="90" rx="18" fill="#111827" opacity="0.6"/>
    <rect x="200" y="340" width="780" height="24" rx="12" fill="#f9f8f6" opacity="0.18"/>
    <rect x="200" y="388" width="690" height="24" rx="12" fill="#f9f8f6" opacity="0.14"/>
    <rect x="200" y="436" width="740" height="24" rx="12" fill="#f9f8f6" opacity="0.12"/>
    <rect x="200" y="510" width="340" height="180" rx="22" fill="#111827" opacity="0.55"/>
    <rect x="560" y="510" width="360" height="180" rx="22" fill="#111827" opacity="0.55"/>
    <path d="M610 270 C 690 240, 800 240, 840 315 C 880 390, 820 460, 710 455 C 600 450, 540 370, 610 270 Z"
          fill="#60a5fa" fill-opacity="0.12"/>
    <path d="M640 300 C 705 275, 790 285, 815 335 C 840 385, 805 435, 725 430 C 645 425, 600 365, 640 300 Z"
          fill="#22c55e" fill-opacity="0.12"/>
  </g>
</svg>

