<svg xmlns="http://www.w3.org/2000/svg" width="1200" height="900" viewBox="0 0 1200 900">
  <defs>
    <linearGradient id="bg" x1="0" y1="0" x2="1" y2="1">
      <stop offset="0" stop-color="#0b1220"/>
      <stop offset="1" stop-color="#111827"/>
    </linearGradient>
    <radialGradient id="accent" cx="40%" cy="25%" r="70%">
      <stop offset="0" stop-color="#22c55e" stop-opacity="0.40"/>
      <stop offset="1" stop-color="#22c55e" stop-opacity="0"/>
    </radialGradient>
  </defs>
  <rect width="1200" height="900" fill="url(#bg)"/>
  <rect width="1200" height="900" fill="url(#accent)"/>
  <g opacity="0.95">
    <rect x="150" y="160" width="900" height="580" rx="28" fill="#0f172a" opacity="0.55"/>
    <rect x="210" y="230" width="500" height="110" rx="20" fill="#111827" opacity="0.6"/>
    <rect x="730" y="230" width="280" height="110" rx="20" fill="#111827" opacity="0.5"/>
    <rect x="210" y="370" width="800" height="120" rx="20" fill="#111827" opacity="0.48"/>
    <rect x="210" y="520" width="360" height="120" rx="20" fill="#111827" opacity="0.45"/>
    <rect x="590" y="520" width="420" height="120" rx="20" fill="#111827" opacity="0.42"/>
    <path d="M260 450 C 320 405, 395 395, 450 425 C 505 455, 585 475, 650 440" stroke="#60a5fa" stroke-opacity="0.22" stroke-width="10" fill="none" stroke-linecap="round"/>
    <path d="M250 605 C 360 540, 470 540, 580 605 C 690 670, 820 665, 910 600" stroke="#f59e0b" stroke-opacity="0.22" stroke-width="10" fill="none" stroke-linecap="round"/>
    <circle cx="980" cy="260" r="16" fill="#60a5fa" fill-opacity="0.25"/>
    <circle cx="260" cy="260" r="22" fill="#22c55e" fill-opacity="0.18"/>
  </g>
</svg>

